# xmcd
#
# Track frame offsets: 
#        150
#        17514
#        34077
#        47611
#        59875
#        72431
#        86656
#        105193
#        119816
#        130620
#
# Disc length: 1974 seconds
#
# Revision: 0
# Processed by: cddbd v1.5.2PL0 Copyright (c) Steve Scherf et al.
# Submitted via: ExactAudioCopy v1.0b1
#
DISCID=8607b40a
DTITLE=David Allan Coe - Son Of The South
DYEAR=1986
DGENRE=Country
TTITLE0=Love Is A Never Ending War
TTITLE1=Storms Never Last
TTITLE2=Gemini Girl
TTITLE3=To Help You Love Again
TTITLE4=Cold Turkey
TTITLE5=A Country Boy (Who Rolled The Rock Away)
TTITLE6=Couldn't Do Nothin' Right
TTITLE7=I've Already Cheated on You
TTITLE8=David Allan Coe (With Willie Nelson and Waylon Jennings)
TTITLE9=Son Of The South
EXTD=
EXTT0=
EXTT1=
EXTT2=
EXTT3=
EXTT4=
EXTT5=
EXTT6=
EXTT7=
EXTT8=
EXTT9=
PLAYORDER=
